<svg xmlns="http://www.w3.org/2000/svg" version="1.1" xmlns:xlink="http://www.w3.org/1999/xlink" xmlns:svgjs="http://svgjs.com/svgjs" width="512" height="512" x="0" y="0" viewBox="0 0 512 512" style="enable-background:new 0 0 512 512" xml:space="preserve" class=""><g><path d="m7.5 474.5h497v30h-497z" fill="#9a6a53" data-original="#9a6a53"></path><path d="m236 104.5h240v30h-240z" fill="#5f6c75" data-original="#5f6c75"></path><path d="m286 74.5h140v30h-140z" fill="#ffc250" data-original="#ffc250" class=""></path><path d="m256 214.5-220 60v-30l220-60z" fill="#5f6c75" data-original="#5f6c75"></path><path d="m256 134.5h200v340h-200z" fill="#ffc250" data-original="#ffc250" class=""></path><path d="m76 474.5h180v-260l-180 49.09z" fill="#dc4955" data-original="#dc4955" class=""></path><path d="m316 404.5h80v70h-80z" fill="#9ec8fc" data-original="#9ec8fc" class=""></path><path d="m296 174.5h40v40h-40z" fill="#9ec8fc" data-original="#9ec8fc" class=""></path><path d="m376 174.5h40v40h-40z" fill="#9ec8fc" data-original="#9ec8fc" class=""></path><path d="m296 254.5h40v40h-40z" fill="#9ec8fc" data-original="#9ec8fc" class=""></path><path d="m376 254.5h40v40h-40z" fill="#9ec8fc" data-original="#9ec8fc" class=""></path><path d="m296 334.5h40v40h-40z" fill="#9ec8fc" data-original="#9ec8fc" class=""></path><path d="m376 334.5h40v40h-40z" fill="#9ec8fc" data-original="#9ec8fc" class=""></path><path d="m93.93 336a136.14 136.14 0 0 1 -86.43-126.75v-59.34l86.43-33.91 86.43 33.91v59.34a136.16 136.16 0 0 1 -86.43 126.75z" fill="#9ec8fc" data-original="#9ec8fc" class=""></path><path d="m84.2 261a12.66 12.66 0 0 1 -9-3.72l-28.85-28.87 18-18 19.89 19.9 39.31-39.31 18 18-48.37 48.28a12.66 12.66 0 0 1 -8.98 3.72z" fill="#e9edf1" data-original="#e9edf1" class=""></path><path d="m136 364.5h120v110h-120z" fill="#e9edf1" data-original="#e9edf1" class=""></path><path d="m311 7.5h30v67h-30z" fill="#dc4955" data-original="#dc4955" class=""></path><path d="m371 37.5h30v37h-30z" fill="#dc4955" data-original="#dc4955" class=""></path><g fill="#333"><path d="m504.5 467h-41v-325h12.5a7.5 7.5 0 0 0 7.5-7.5v-30a7.5 7.5 0 0 0 -7.5-7.5h-42.5v-22.5a7.5 7.5 0 0 0 -7.5-7.5h-17.5v-29.5a7.5 7.5 0 0 0 -7.5-7.5h-30a7.5 7.5 0 0 0 -7.5 7.5v29.5h-15v-59.5a7.5 7.5 0 0 0 -7.5-7.5h-30a7.5 7.5 0 0 0 -7.5 7.5v59.5h-17.5a7.5 7.5 0 0 0 -7.5 7.5v22.5h-42.5a7.5 7.5 0 0 0 -7.5 7.5v30a7.5 7.5 0 0 0 7.5 7.5h12.5v36.77l-60.64 16.54v-45.4a7.51 7.51 0 0 0 -4.76-7l-86.43-33.91a7.51 7.51 0 0 0 -5.48 0l-86.43 33.92a7.51 7.51 0 0 0 -4.76 7v59.34a143.69 143.69 0 0 0 68.5 122.42v135.32h-61a7.5 7.5 0 0 0 -7.5 7.5v30a7.5 7.5 0 0 0 7.5 7.5h497a7.5 7.5 0 0 0 7.5-7.5v-30a7.5 7.5 0 0 0 -7.5-7.5zm-126-422h15v22h-15zm-60-30h15v52h-15zm-25 67h125v15h-125zm-50 30h225v15h-225zm205 30v325h-45v-55h7.5a7.5 7.5 0 0 0 0-15h-110a7.5 7.5 0 0 0 0 15h7.5v55h-45v-325zm-100 270v55h-25v-55zm15 0h25v55h-25zm-115-40v95h-105v-95zm0-163.23-61.56 16.79a146.25 146.25 0 0 0 .89-14.69l60.67-16.55zm-233.5.48v-54.25l78.93-31 78.93 31v54.23a127.88 127.88 0 0 1 -78.93 118.68 127.88 127.88 0 0 1 -78.93-118.66zm68.5 130.43c2.53 1.16 5.08 2.28 7.69 3.3a7.48 7.48 0 0 0 5.48 0 143.76 143.76 0 0 0 87.45-101.1l64.38-17.56v132.68h-132.5a7.5 7.5 0 0 0 0 15h12.5v95h-45zm413.5 157.32h-482v-15h482z" fill="#333333" data-original="#333333" class=""></path><path d="m296 222h40a7.5 7.5 0 0 0 7.5-7.5v-40a7.5 7.5 0 0 0 -7.5-7.5h-40a7.5 7.5 0 0 0 -7.5 7.5v40a7.5 7.5 0 0 0 7.5 7.5zm7.5-40h25v25h-25z" fill="#333333" data-original="#333333" class=""></path><path d="m376 222h40a7.5 7.5 0 0 0 7.5-7.5v-40a7.5 7.5 0 0 0 -7.5-7.5h-40a7.5 7.5 0 0 0 -7.5 7.5v40a7.5 7.5 0 0 0 7.5 7.5zm7.5-40h25v25h-25z" fill="#333333" data-original="#333333" class=""></path><path d="m296 302h40a7.5 7.5 0 0 0 7.5-7.5v-40a7.5 7.5 0 0 0 -7.5-7.5h-40a7.5 7.5 0 0 0 -7.5 7.5v40a7.5 7.5 0 0 0 7.5 7.5zm7.5-40h25v25h-25z" fill="#333333" data-original="#333333" class=""></path><path d="m376 302h40a7.5 7.5 0 0 0 7.5-7.5v-40a7.5 7.5 0 0 0 -7.5-7.5h-40a7.5 7.5 0 0 0 -7.5 7.5v40a7.5 7.5 0 0 0 7.5 7.5zm7.5-40h25v25h-25z" fill="#333333" data-original="#333333" class=""></path><path d="m296 382h40a7.5 7.5 0 0 0 7.5-7.5v-40a7.5 7.5 0 0 0 -7.5-7.5h-40a7.5 7.5 0 0 0 -7.5 7.5v40a7.5 7.5 0 0 0 7.5 7.5zm7.5-40h25v25h-25z" fill="#333333" data-original="#333333" class=""></path><path d="m376 382h40a7.5 7.5 0 0 0 7.5-7.5v-40a7.5 7.5 0 0 0 -7.5-7.5h-40a7.5 7.5 0 0 0 -7.5 7.5v40a7.5 7.5 0 0 0 7.5 7.5zm7.5-40h25v25h-25z" fill="#333333" data-original="#333333" class=""></path><path d="m146.81 214.26a7.5 7.5 0 0 0 0-10.61l-18-18a7.49 7.49 0 0 0 -10.6 0l-34 34-14.6-14.5a7.5 7.5 0 0 0 -10.61 0l-18 17.95a7.5 7.5 0 0 0 0 10.61l28.87 28.87a20.18 20.18 0 0 0 28.56 0zm-62.61 39.24a5.15 5.15 0 0 1 -3.67-1.5l-23.53-23.59 7.35-7.35 14.55 14.59a7.5 7.5 0 0 0 10.61 0l34-34 7.39 7.35-43 43a5.17 5.17 0 0 1 -3.7 1.5z" fill="#333333" data-original="#333333" class=""></path><path d="m174.94 452h42.12a7.5 7.5 0 0 0 0-15h-42.12a7.5 7.5 0 0 0 0 15z" fill="#333333" data-original="#333333" class=""></path></g></g></svg>